<svg xmlns="http://www.w3.org/2000/svg" viewBox="0 0 1600 980" role="img" aria-labelledby="title desc">
  <title id="title">Xiao Huanglong turnaround sheet</title>
  <desc id="desc">Three-view concept sheet for Xiao Huanglong, the human hub mascot of Cyber-Ming.</desc>
  <defs>
    <style>
      .bg{fill:#F6F0E6}
      .ink{stroke:#3A312B;stroke-width:4;stroke-linecap:round;stroke-linejoin:round}
      .panel{fill:#FFF9F0;stroke:#3A312B;stroke-width:4}
      .gold{fill:#E2B93B;stroke:#3A312B;stroke-width:4;stroke-linecap:round;stroke-linejoin:round}
      .gold-dark{fill:#C7922D}
      .cream{fill:#F5E4B8;stroke:#3A312B;stroke-width:4;stroke-linecap:round;stroke-linejoin:round}
      .red{fill:#A54A46;stroke:#3A312B;stroke-width:4;stroke-linecap:round;stroke-linejoin:round}
      .cloud{fill:#E9E0D3;stroke:#3A312B;stroke-width:4;stroke-linecap:round;stroke-linejoin:round}
      .label{font:700 28px Georgia, serif; fill:#3A312B}
      .small{font:500 21px 'Trebuchet MS', sans-serif; fill:#3A312B}
      .tiny{font:500 18px 'Trebuchet MS', sans-serif; fill:#3A312B}
      .line{fill:none;stroke:#3A312B;stroke-width:4;stroke-linecap:round;stroke-linejoin:round}
    </style>
  </defs>
  <rect class="bg" width="1600" height="980"/>
  <text x="95" y="90" class="label">Xiao Huanglong</text>
  <text x="95" y="128" class="small">Human hub / routing center / final judgment</text>

  <rect x="70" y="160" width="450" height="700" rx="28" class="panel"/>
  <rect x="575" y="160" width="450" height="700" rx="28" class="panel"/>
  <rect x="1080" y="160" width="450" height="700" rx="28" class="panel"/>

  <text x="250" y="205" text-anchor="middle" class="label">Front</text>
  <text x="750" y="205" text-anchor="middle" class="label">Three-quarter</text>
  <text x="1255" y="205" text-anchor="middle" class="label">Back</text>

  <g transform="translate(0 0)">
    <path d="M210 680 C105 755 135 838 250 850 C320 856 360 830 376 792" class="gold"/>
    <ellipse cx="250" cy="595" rx="116" ry="144" class="gold"/>
    <ellipse cx="250" cy="612" rx="70" ry="102" class="cream"/>
    <circle cx="250" cy="365" r="104" class="gold"/>
    <ellipse cx="250" cy="390" rx="78" ry="58" class="cream"/>
    <path d="M195 282 L166 236 L212 258" class="gold-dark ink"/>
    <path d="M305 282 L334 236 L288 258" class="gold-dark ink"/>
    <path d="M190 382 C140 360 134 336 135 304" class="line"/>
    <path d="M310 382 C360 360 366 336 365 304" class="line"/>
    <path d="M210 405 C170 430 150 450 135 480" class="line"/>
    <path d="M290 405 C330 430 350 450 365 480" class="line"/>
    <circle cx="214" cy="352" r="11" fill="#3A312B"/>
    <circle cx="286" cy="352" r="11" fill="#3A312B"/>
    <path d="M214 434 Q250 454 286 434" class="line"/>
    <path d="M176 562 C205 533 218 520 235 516" class="cream"/>
    <path d="M324 562 C295 533 282 520 265 516" class="cream"/>
    <rect x="220" y="545" width="60" height="50" rx="10" class="red"/>
    <rect x="233" y="560" width="34" height="20" rx="4" fill="#FFF9F0" stroke="#3A312B" stroke-width="3"/>
    <path d="M175 695 C208 728 290 728 325 695" class="cloud"/>
    <path d="M165 722 C208 765 300 765 338 722" class="cloud"/>
  </g>

  <g transform="translate(490 0)">
    <path d="M210 680 C95 742 127 842 252 852 C318 858 366 833 394 790" class="gold"/>
    <ellipse cx="260" cy="602" rx="112" ry="144" class="gold" transform="rotate(-10 260 602)"/>
    <ellipse cx="277" cy="610" rx="64" ry="98" class="cream" transform="rotate(-10 277 610)"/>
    <circle cx="280" cy="366" r="100" class="gold"/>
    <ellipse cx="302" cy="392" rx="72" ry="55" class="cream"/>
    <path d="M252 286 L224 238 L270 260" class="gold-dark ink"/>
    <path d="M344 294 L374 248 L326 267" class="gold-dark ink"/>
    <path d="M246 386 C205 355 202 326 207 302" class="line"/>
    <path d="M337 397 C376 381 397 360 409 331" class="line"/>
    <path d="M268 418 C227 444 208 468 193 498" class="line"/>
    <path d="M330 425 C372 441 399 462 419 490" class="line"/>
    <circle cx="275" cy="351" r="11" fill="#3A312B"/>
    <path d="M288 438 Q321 449 343 431" class="line"/>
    <path d="M200 565 C231 536 246 522 266 520" class="cream"/>
    <path d="M340 573 C319 543 306 529 285 524" class="cream"/>
    <rect x="262" y="550" width="60" height="48" rx="10" class="red" transform="rotate(-4 292 574)"/>
    <rect x="275" y="563" width="34" height="20" rx="4" fill="#FFF9F0" stroke="#3A312B" stroke-width="3" transform="rotate(-4 292 574)"/>
    <path d="M196 703 C231 734 315 741 351 705" class="cloud"/>
    <path d="M183 730 C236 767 333 773 370 728" class="cloud"/>
  </g>

  <g transform="translate(990 0)">
    <path d="M278 688 C392 742 378 836 259 852 C189 862 131 828 109 782" class="gold"/>
    <ellipse cx="250" cy="602" rx="118" ry="146" class="gold"/>
    <ellipse cx="250" cy="370" rx="102" ry="104" class="gold"/>
    <path d="M202 280 L175 236 L217 257" class="gold-dark ink"/>
    <path d="M299 280 L325 236 L283 257" class="gold-dark ink"/>
    <path d="M210 335 C220 315 235 302 250 295 C265 302 280 315 290 335" class="line"/>
    <path d="M205 410 C227 430 273 430 295 410" class="line"/>
    <path d="M163 560 C196 532 214 521 236 519" class="cream"/>
    <path d="M337 560 C304 532 286 521 264 519" class="cream"/>
    <path d="M170 695 C204 727 294 727 330 695" class="cloud"/>
    <path d="M160 724 C206 763 300 763 338 724" class="cloud"/>
    <rect x="213" y="521" width="74" height="26" rx="12" class="red"/>
  </g>

  <rect x="120" y="885" width="1360" height="58" rx="18" class="panel"/>
  <text x="800" y="922" text-anchor="middle" class="small">Keywords: warm gold, steady eyes, routing whiskers, seal tablet, cloud dais, protective sovereignty</text>
</svg>
