<svg xmlns="http://www.w3.org/2000/svg" viewBox="0 0 1600 980" role="img" aria-labelledby="title desc">
  <title id="title">Xu Jie character sheet</title>
  <desc id="desc">Character sheet for Xu Jie, the auditor figure in Cyber-Ming.</desc>
  <defs>
    <style>
      .bg{fill:#F6F0E6}
      .panel{fill:#FFF9F0;stroke:#3A312B;stroke-width:4}
      .ink{stroke:#3A312B;stroke-width:4;stroke-linecap:round;stroke-linejoin:round}
      .robe{fill:#7E8794;stroke:#3A312B;stroke-width:4;stroke-linecap:round;stroke-linejoin:round}
      .trim{fill:#56606D;stroke:#3A312B;stroke-width:4;stroke-linecap:round;stroke-linejoin:round}
      .paper{fill:#F7F1E5;stroke:#3A312B;stroke-width:4;stroke-linecap:round;stroke-linejoin:round}
      .seal{fill:#A54A46;stroke:#3A312B;stroke-width:4;stroke-linecap:round;stroke-linejoin:round}
      .skin{fill:#EBC9A8;stroke:#3A312B;stroke-width:4;stroke-linecap:round;stroke-linejoin:round}
      .label{font:700 28px Georgia, serif; fill:#3A312B}
      .small{font:500 21px 'Trebuchet MS', sans-serif; fill:#3A312B}
      .tiny{font:500 18px 'Trebuchet MS', sans-serif; fill:#3A312B}
      .line{fill:none;stroke:#3A312B;stroke-width:4;stroke-linecap:round;stroke-linejoin:round}
    </style>
  </defs>
  <rect class="bg" width="1600" height="980"/>
  <text x="90" y="90" class="label">Xu Jie</text>
  <text x="90" y="128" class="small">Auditor / restraint / evidence-first review</text>

  <rect x="70" y="165" width="650" height="690" rx="28" class="panel"/>
  <rect x="770" y="165" width="360" height="330" rx="28" class="panel"/>
  <rect x="1170" y="165" width="360" height="330" rx="28" class="panel"/>
  <rect x="770" y="525" width="760" height="330" rx="28" class="panel"/>

  <text x="395" y="208" text-anchor="middle" class="label">Full Figure</text>
  <text x="950" y="208" text-anchor="middle" class="label">Calm Review</text>
  <text x="1350" y="208" text-anchor="middle" class="label">Fake-Evidence Check</text>
  <text x="1150" y="568" text-anchor="middle" class="label">Props and Use</text>

  <g>
    <ellipse cx="398" cy="350" rx="88" ry="94" class="skin"/>
    <path d="M318 292 L280 256 L332 250 L352 292" class="trim"/>
    <path d="M478 292 L516 256 L464 250 L444 292" class="trim"/>
    <rect x="326" y="236" width="144" height="40" rx="14" class="trim"/>
    <circle cx="368" cy="342" r="10" fill="#3A312B"/>
    <circle cx="430" cy="342" r="10" fill="#3A312B"/>
    <path d="M345 328 Q367 318 388 326" class="line"/>
    <path d="M409 326 Q430 318 451 328" class="line"/>
    <path d="M368 396 Q398 407 428 396" class="line"/>
    <path d="M280 765 L322 468 L474 468 L516 765 Z" class="robe"/>
    <rect x="336" y="472" width="124" height="244" rx="28" class="trim"/>
    <path d="M323 518 C258 565 240 646 254 720" class="robe"/>
    <path d="M474 518 C538 563 555 645 544 720" class="robe"/>
    <path d="M289 620 L246 699 L286 715 L330 642" class="robe"/>
    <path d="M505 622 L547 700 L508 716 L467 643" class="robe"/>
    <path d="M352 770 L348 844 L392 844 L398 770" class="trim"/>
    <path d="M446 770 L441 844 L485 844 L492 770" class="trim"/>
    <rect x="514" y="520" width="106" height="144" rx="12" class="paper" transform="rotate(8 567 592)"/>
    <line x1="534" y1="550" x2="602" y2="561" class="line"/>
    <line x1="532" y1="578" x2="598" y2="589" class="line"/>
    <line x1="529" y1="606" x2="592" y2="617" class="line"/>
    <circle cx="536" cy="641" r="16" class="seal"/>
    <path d="M268 705 C323 744 475 744 529 705" class="line"/>
  </g>

  <g transform="translate(0 10)">
    <ellipse cx="950" cy="320" rx="66" ry="74" class="skin"/>
    <rect x="900" y="258" width="100" height="30" rx="12" class="trim"/>
    <path d="M892 286 L858 253 L906 248 L922 286" class="trim"/>
    <path d="M1008 286 L1042 253 L994 248 L978 286" class="trim"/>
    <circle cx="926" cy="318" r="8" fill="#3A312B"/>
    <circle cx="974" cy="318" r="8" fill="#3A312B"/>
    <path d="M909 306 Q926 298 941 305" class="line"/>
    <path d="M959 305 Q974 298 991 306" class="line"/>
    <path d="M926 356 Q950 365 972 354" class="line"/>
    <path d="M885 420 L905 375 L995 375 L1015 420 Z" class="robe"/>
    <rect x="1016" y="380" width="52" height="82" rx="12" class="paper" transform="rotate(10 1042 421)"/>
    <circle cx="1032" cy="440" r="10" class="seal"/>
  </g>

  <g transform="translate(0 10)">
    <ellipse cx="1350" cy="320" rx="66" ry="74" class="skin"/>
    <rect x="1300" y="258" width="100" height="30" rx="12" class="trim"/>
    <path d="M1292 286 L1258 253 L1306 248 L1322 286" class="trim"/>
    <path d="M1408 286 L1442 253 L1394 248 L1378 286" class="trim"/>
    <circle cx="1325" cy="315" r="8" fill="#3A312B"/>
    <circle cx="1374" cy="315" r="8" fill="#3A312B"/>
    <path d="M1308 306 Q1327 294 1343 303" class="line"/>
    <path d="M1358 305 Q1375 294 1392 301" class="line"/>
    <path d="M1318 355 Q1350 338 1380 350" class="line"/>
    <path d="M1288 420 L1306 377 L1396 377 L1413 420 Z" class="robe"/>
    <rect x="1246" y="380" width="60" height="18" rx="8" class="seal" transform="rotate(-32 1276 389)"/>
    <line x1="1278" y1="389" x2="1242" y2="448" class="line"/>
  </g>

  <g>
    <rect x="812" y="590" width="220" height="92" rx="18" class="paper"/>
    <text x="836" y="627" class="small">Keywords</text>
    <text x="836" y="658" class="tiny">calm / precise / restrained</text>

    <rect x="1058" y="590" width="220" height="92" rx="18" class="paper"/>
    <text x="1082" y="627" class="small">Props</text>
    <text x="1082" y="658" class="tiny">dossier / brush / red notes</text>

    <rect x="1304" y="590" width="184" height="92" rx="18" class="paper"/>
    <text x="1328" y="627" class="small">Use</text>
    <text x="1328" y="658" class="tiny">audit / review / challenge</text>

    <rect x="812" y="708" width="676" height="104" rx="18" class="panel"/>
    <text x="840" y="748" class="small">Anchor judgment</text>
    <text x="840" y="780" class="tiny">Xu Jie should look like he can quietly overturn a false completion claim without becoming a second executor.</text>
  </g>
</svg>
